:SAMPLES-PER-SECOND 30
:FULLY-SPECIFIED
:DEGREES
979
root  3.31363 41.0468 -2.04188 -176.203 -85.3798 173.629
RightUpLeg  2.34459 -8.21242 -6.34471
RightLeg  3.11119 -3.45199 2.89891
RightFoot  -0.839098 -0.0443832 0.420643
RightToes  -4.65663e-010 0 -3.6325e-017
Spine  0.163461 0.0924545 9.83949
Spine1  9.3883 3.02891 -11.4278
HEad  7.05667 -2.32339 2.01923
LeftShoulder1  10.0181 -13.5174 -51.365
LeftArm  4.36625 14.9697 -17.4597
LeftForeArm  19.6109 -23.8741 -4.07689
LeftHand  -0.244104 0.0205437 5.32207
RightShoulder  7.40988 11.4664 43.1428
RightArm  3.0679 -7.87459 33.2888
RightForeArm  4.27065 16.5421 6.28805
RightHand  -0.541167 -0.0569152 -11.8181
LeftUpLeg  5.2985 6.37401 5.24338
LeftLeg  -0.0932364 13.1435 -4.29933
LeftFoot  -1.39013 0.0942661 -0.977881
LeftToes  4.18335e-011 1.59304e-011 3.38507e-012
980
root  3.31777 41.0505 -2.00009 -175.442 -85.5633 173.107
RightUpLeg  2.17336 -8.18777 -6.38054
RightLeg  2.94948 -3.6527 2.86269
RightFoot  -0.725759 -0.0596312 0.588227
RightToes  -4.65663e-010 0 -3.6325e-017
Spine  0.216097 0.170176 9.26923
Spine1  9.40728 2.85237 -10.4163
HEad  7.37862 -2.68216 7.82963
LeftShoulder1  9.97572 -13.5204 -51.143
LeftArm  4.23789 14.9003 -18.0327
LeftForeArm  19.7932 -23.7511 -4.04312
LeftHand  -0.244104 0.0205437 5.32207
RightShoulder  7.43386 11.4672 43.2881
RightArm  2.88839 -7.68613 32.9657
RightForeArm  4.58243 16.2689 6.36882
RightHand  -0.538164 -0.0410313 -11.72
LeftUpLeg  5.03834 6.35624 5.15042
LeftLeg  -0.179243 13.0251 -4.37613
LeftFoot  -1.31661 0.0894317 -0.931514
LeftToes  4.18335e-011 1.59304e-011 3.38507e-012
981
root  3.31358 41.0536 -1.95993 -174.804 -85.7391 172.653
RightUpLeg  2.08563 -8.17052 -6.42472
RightLeg  2.76981 -3.83229 2.84087
RightFoot  -0.621268 -0.0796441 0.803443
RightToes  -4.65663e-010 0 -3.6325e-017
Spine  0.149185 0.280465 8.51754
Spine1  9.61371 2.65849 -9.18464
HEad  7.85023 -3.00575 13.3697
LeftShoulder1  9.92007 -13.517 -50.8725
LeftArm  3.87156 14.7558 -18.8254
LeftForeArm  20.1956 -23.6759 -4.00911
LeftHand  -0.244104 0.0205437 5.32207
RightShoulder  7.44259 11.4743 43.3204
RightArm  2.88907 -7.44715 32.6188
RightForeArm  4.76646 16.014 6.46488
RightHand  -0.552197 0.103511 -11.7198
LeftUpLeg  4.83291 6.31029 5.04735
LeftLeg  -0.234242 12.9401 -4.4016
LeftFoot  -1.24972 0.082673 -0.857312
LeftToes  4.18335e-011 1.59304e-011 3.38507e-012
982
root  3.30314 41.0564 -1.91575 -173.835 -85.9348 171.717
RightUpLeg  2.14497 -8.21174 -6.54443
RightLeg  2.66479 -3.97069 2.82901
RightFoot  -0.576432 -0.0926729 0.940153
RightToes  -4.65663e-010 0 -3.6325e-017
Spine  0.120085 0.400838 7.43161
Spine1  9.92269 2.35594 -7.46408
HEad  8.48214 -3.36067 18.0968
LeftShoulder1  9.86162 -13.5421 -50.5033
LeftArm  3.74481 14.6201 -19.9819
LeftForeArm  20.3761 -23.6328 -3.9929
LeftHand  -0.244104 0.0205437 5.32207
RightShoulder  7.40609 11.4775 43.0856
RightArm  2.74493 -7.25964 32.3323
RightForeArm  4.81451 15.9388 6.47834
RightHand  -0.573155 0.252369 -11.8544
LeftUpLeg  4.80471 6.19175 4.88033
LeftLeg  -0.319512 12.8956 -4.3712
LeftFoot  -1.18638 0.0729102 -0.736788
LeftToes  4.18335e-011 1.59304e-011 3.38507e-012
983
root  3.29528 41.0584 -1.87574 -172.896 -86.1836 170.722
RightUpLeg  2.26656 -8.28452 -6.67445
RightLeg  2.65235 -4.13301 2.8361
RightFoot  -0.579929 -0.0946545 0.938091
RightToes  -4.65663e-010 0 -3.6325e-017
Spine  0.171488 0.51096 5.91008
Spine1  10.1687 1.83996 -5.00721
HEad  9.47677 -3.85843 21.6836
LeftShoulder1  9.82271 -13.6359 -50.0337
LeftArm  3.80356 14.6797 -21.589
LeftForeArm  20.276 -23.5917 -3.99185
LeftHand  -0.244104 0.0205437 5.32207
RightShoulder  7.33635 11.5017 42.5812
RightArm  2.35057 -7.11911 32.0513
RightForeArm  4.77391 15.9772 6.42375
RightHand  -0.575058 0.21657 -11.966
LeftUpLeg  4.83815 6.07406 4.73195
LeftLeg  -0.349185 12.7868 -4.30276
LeftFoot  -1.16206 0.0656251 -0.65043
LeftToes  4.18335e-011 1.59304e-011 3.38507e-012
984
root  3.28802 41.0593 -1.84711 -172.96 -86.478 170.754
RightUpLeg  2.38927 -8.32275 -6.70956
RightLeg  2.60954 -4.37852 2.87685
RightFoot  -0.567885 -0.0916837 0.872123
RightToes  -4.65663e-010 0 -3.6325e-017
Spine  0.210628 0.599942 4.19524
Spine1  10.2754 1.15011 -2.06939
HEad  11.0249 -4.61984 24.0982
LeftShoulder1  9.82217 -13.8112 -49.5272
LeftArm  3.90357 14.9797 -23.4376
LeftForeArm  20.3344 -23.6117 -3.99188
LeftHand  -0.244104 0.0205437 5.32207
RightShoulder  7.26692 11.5368 42.0452
RightArm  1.90866 -6.93362 31.6428
RightForeArm  4.61801 15.9436 6.40275
RightHand  -0.566408 0.116611 -11.9922
LeftUpLeg  4.79273 6.0524 4.71798
LeftLeg  -0.247229 12.5314 -4.23107
LeftFoot  -1.20369 0.0639304 -0.642288
LeftToes  4.18335e-011 1.59304e-011 3.38507e-012
985
root  3.27128 41.0596 -1.82404 -174.14 -86.7537 171.936
RightUpLeg  2.54154 -8.31271 -6.66344
RightLeg  2.4564 -4.65274 2.93352
RightFoot  -0.519855 -0.0910257 0.851535
RightToes  -4.65663e-010 0 -3.6325e-017
Spine  0.173595 0.658351 2.70453
Spine1  10.2954 0.44675 0.734368
HEad  13.0536 -5.68497 25.6151
LeftShoulder1  9.85303 -14.0137 -49.1089
LeftArm  4.35296 15.3074 -25.0651
LeftForeArm  20.8503 -23.7942 -3.99676
LeftHand  -0.244104 0.0205437 5.32207
RightShoulder  7.19294 11.5206 41.634
RightArm  1.39049 -6.68246 31.19
RightForeArm  4.34645 15.7775 6.43847
RightHand  -0.57258 0.125789 -12.102
LeftUpLeg  4.71372 6.12131 4.81765
LeftLeg  -0.0878703 12.1967 -4.19852
LeftFoot  -1.29027 0.0632706 -0.646575
LeftToes  4.18335e-011 1.59304e-011 3.38507e-012
986
root  3.24564 41.0594 -1.79499 -175.115 -86.9205 172.904
RightUpLeg  2.69997 -8.30583 -6.653
RightLeg  2.29439 -4.81243 2.96565
RightFoot  -0.481531 -0.0945955 0.902586
RightToes  -4.65663e-010 0 -3.6325e-017
Spine  0.0682931 0.688016 1.59073
Spine1  10.3429 -0.160251 3.05254
HEad  15.2259 -6.96538 26.689
LeftShoulder1  9.88288 -14.1486 -48.8807
LeftArm  5.33784 15.4149 -26.1824
LeftForeArm  21.6309 -24.138 -4.02592
LeftHand  -0.244104 0.0205437 5.32207
RightShoulder  7.08765 11.4259 41.2576
RightArm  0.551051 -6.42501 30.913
RightForeArm  4.11782 15.6221 6.43617
RightHand  -0.589657 0.167063 -12.3718
LeftUpLeg  4.71042 6.19616 4.88983
LeftLeg  -0.00575125 11.9564 -4.22739
LeftFoot  -1.37274 0.0587608 -0.590398
LeftToes  4.18335e-011 1.59304e-011 3.38507e-012
987
root  3.22268 41.059 -1.75466 -174.849 -86.9349 172.626
RightUpLeg  2.76685 -8.34225 -6.74285
RightLeg  2.26105 -4.77395 2.95971
RightFoot  -0.48793 -0.0996742 0.979616
RightToes  -4.65663e-010 0 -3.6325e-017
Spine  -0.0967938 0.697357 0.738391
Spine1  10.5115 -0.671645 4.9272
HEad  17.1779 -8.39333 27.6624
LeftShoulder1  9.88044 -14.1724 -48.8027
LeftArm  6.29042 15.284 -26.9307
LeftForeArm  22.3262 -24.5312 -4.07271
LeftHand  -0.244104 0.0205437 5.32207
RightShoulder  6.96584 11.3098 40.8347
RightArm  -0.363097 -6.17949 30.8218
RightForeArm  4.01187 15.6626 6.33989
RightHand  -0.597081 0.146547 -12.5706
LeftUpLeg  4.77556 6.22374 4.84784
LeftLeg  -0.0329569 11.9154 -4.29989
LeftFoot  -1.42636 0.0512317 -0.486658
LeftToes  4.18335e-011 1.59304e-011 3.38507e-012
988
root  3.20706 41.0586 -1.70551 -174.129 -86.8542 171.907
RightUpLeg  2.74664 -8.39569 -6.87561
RightLeg  2.31158 -4.62244 2.9368
RightFoot  -0.505866 -0.104376 1.04991
RightToes  -4.65663e-010 0 -3.6325e-017
Spine  -0.303233 0.674136 0.105524
Spine1  10.8056 -1.12396 6.41783
HEad  18.7305 -9.9865 28.5768
LeftShoulder1  9.84262 -14.1298 -48.7328
LeftArm  6.49626 15.1 -27.5889
LeftForeArm  22.8018 -24.8964 -4.12529
LeftHand  -0.244104 0.0205437 5.32207
RightShoulder  6.87015 11.2401 40.4326
RightArm  -0.718981 -5.90915 30.7543
RightForeArm  3.91042 15.883 6.23202
RightHand  -0.593668 0.16322 -12.4636
LeftUpLeg  4.83446 6.21866 4.74132
LeftLeg  -0.0871211 12.0082 -4.37026
LeftFoot  -1.46625 0.0442453 -0.390701
LeftToes  4.18335e-011 1.59304e-011 3.38507e-012
989
root  3.19266 41.0582 -1.65348 -173.977 -86.7904 171.752
RightUpLeg  2.76041 -8.41935 -6.97195
RightLeg  2.29993 -4.51724 2.90956
RightFoot  -0.485762 -0.109348 1.12026
RightToes  -4.65663e-010 0 -3.6325e-017
Spine  -0.469149 0.598395 -0.253316
Spine1  11.1121 -1.53427 7.51312
HEad  19.8912 -11.6393 29.2868
LeftShoulder1  9.80195 -14.0942 -48.629
LeftArm  6.06355 15.0288 -28.1816
LeftForeArm  23.1112 -25.2857 -4.19221
LeftHand  -0.244104 0.0205437 5.32207
RightShoulder  6.80376 11.2128 40.0876
RightArm  -0.510389 -5.62334 30.6831
RightForeArm  3.88034 16.0593 6.19405
RightHand  -0.589437 0.277071 -12.1371
LeftUpLeg  4.86528 6.20301 4.64875
LeftLeg  -0.0874463 12.1037 -4.39898
LeftFoot  -1.51245 0.039482 -0.328629
LeftToes  4.18335e-011 1.59304e-011 3.38507e-012
990
root  3.17585 41.0575 -1.60503 -174.095 -86.7784 171.853
RightUpLeg  2.82915 -8.41657 -7.03293
RightLeg  2.23145 -4.49353 2.87176
RightFoot  -0.44319 -0.114618 1.19402
RightToes  -4.65663e-010 0 -3.6325e-017
Spine  -0.515568 0.488484 -0.41607
Spine1  11.2826 -1.89886 8.32566
HEad  20.7479 -13.0334 29.6754
LeftShoulder1  9.8015 -14.1014 -48.6066
LeftArm  5.69466 15.0904 -28.5319
LeftForeArm  23.3359 -25.7559 -4.28152
LeftHand  -0.244104 0.0205437 5.32207
RightShoulder  6.73503 11.1762 39.7528
RightArm  -0.488905 -5.39958 30.6844
RightForeArm  4.2872 16.0193 6.19179
RightHand  -0.584806 0.371594 -11.8531
LeftUpLeg  4.88003 6.17577 4.57274
LeftLeg  -0.0306313 12.1658 -4.38957
LeftFoot  -1.56543 0.0362763 -0.29009
LeftToes  4.18335e-011 1.59304e-011 3.38507e-012
